<?xml version="1.0" encoding="UTF-8"?><svg id="Layer_1" xmlns="http://www.w3.org/2000/svg" viewBox="0 0 45.32 45.32"><path d="M26.73,19.13c-2.39-2.39-6.28-2.39-8.67,0-1.7,1.7-1.7,4.47,0,6.17.85.85,1.97,1.28,3.09,1.28s2.24-.43,3.09-1.28c.49-.49.76-1.14.76-1.84s-.27-1.35-.76-1.84c-1.01-1.01-2.66-1.01-3.67,0-.3.3-.3.8,0,1.1.3.3.8.3,1.1,0,.41-.41,1.07-.41,1.47,0,.2.2.3.46.3.74s-.11.54-.3.74c-1.09,1.09-2.88,1.09-3.97,0-1.09-1.09-1.09-2.88,0-3.97,1.78-1.78,4.69-1.78,6.47,0,1.78,1.78,1.78,4.69,0,6.47-1.2,1.2-2.79,1.86-4.48,1.86s-3.29-.66-4.48-1.86c-2.47-2.47-2.47-6.5,0-8.97,3.16-3.16,8.31-3.16,11.47,0,1.53,1.53,2.37,3.57,2.37,5.73s-.84,4.2-2.37,5.73c-.3.3-.3.8,0,1.1.15.15.35.23.55.23s.4-.08.55-.23c1.83-1.83,2.83-4.25,2.83-6.83s-1.01-5.01-2.83-6.83c-3.77-3.77-9.9-3.77-13.67,0-1.49,1.49-2.31,3.48-2.31,5.58s.82,4.09,2.31,5.58c1.49,1.49,3.47,2.31,5.58,2.31s4.09-.82,5.58-2.31c2.39-2.39,2.39-6.28,0-8.67Z"/><path d="M21.88,1.45v8.91c0,.43.35.78.78.78s.78-.35.78-.78V1.35c-.5.15-1.04.19-1.56.1Z"/><path d="M43.36,21.88h-8.33c-.43,0-.78.35-.78.78s.35.78.78.78h8.13c-.06-.53.02-1.06.2-1.56Z"/><path d="M37.72,6.5l-6.99,6.99c-.3.3-.3.8,0,1.1.15.15.35.23.55.23s.4-.08.55-.23l6.99-6.99c-.45-.26-.83-.64-1.1-1.1Z"/><path d="M26.97,12.25c.1.04.2.06.3.06.31,0,.6-.18.72-.48l1.19-2.88c.16-.4-.02-.85-.42-1.02-.4-.16-.85.02-1.02.42l-1.19,2.88c-.16.4.02.85.42,1.02Z"/><path d="M29.75,5.54c.1.04.2.06.3.06.31,0,.6-.18.72-.48l1.19-2.88c.16-.4-.02-.85-.42-1.02-.4-.16-.85.02-1.02.42l-1.19,2.88c-.16.4.02.85.42,1.02Z"/><path d="M39.85,15.54c.12.3.41.48.72.48.1,0,.2-.02.3-.06l2.88-1.19c.4-.16.59-.62.42-1.02-.16-.4-.62-.59-1.02-.42l-2.88,1.19c-.4.16-.59.62-.42,1.02Z"/><path d="M37.45,16.53c-.16-.4-.62-.59-1.02-.42l-2.88,1.19c-.4.16-.59.62-.42,1.02.12.3.41.48.72.48.1,0,.2-.02.3-.06l2.88-1.19c.4-.16.59-.62.42-1.02Z"/><path d="M10.29,21.88H1.78c.04.53-.04,1.07-.24,1.56h8.75c.43,0,.78-.35.78-.78s-.35-.78-.78-.78Z"/><path d="M14.59,13.49l-7.68-7.68c-.34.41-.79.72-1.3.9l7.88,7.88c.15.15.35.23.55.23s.4-.08.55-.23c.3-.3.3-.8,0-1.1Z"/><path d="M17.34,11.83c.12.3.41.48.72.48.1,0,.2-.02.3-.06.4-.16.59-.62.42-1.02l-1.19-2.88c-.16-.4-.62-.59-1.02-.42-.4.16-.59.62-.42,1.02l1.19,2.88Z"/><path d="M14.56,5.12c.12.3.41.48.72.48.1,0,.2-.02.3-.06.4-.16.59-.62.42-1.02l-1.19-2.88c-.16-.4-.62-.59-1.02-.42-.4.16-.59.62-.42,1.02l1.19,2.88Z"/><path d="M11.76,17.3l-2.88-1.19c-.4-.16-.85.02-1.02.42-.16.4.02.85.42,1.02l2.88,1.19c.1.04.2.06.3.06.31,0,.6-.18.72-.48.16-.4-.02-.85-.42-1.02Z"/><path d="M1.58,14.77l2.88,1.19c.1.04.2.06.3.06.31,0,.6-.18.72-.48.16-.4-.02-.85-.42-1.02l-2.88-1.19c-.4-.16-.85.02-1.02.42s.02.85.42,1.02Z"/><path d="M23.44,43.27v-8.31c0-.43-.35-.78-.78-.78s-.78.35-.78.78v8.12c.52-.05,1.06,0,1.56.19Z"/><path d="M14.59,30.73c-.3-.3-.8-.3-1.1,0l-10.69,10.69c-.3.3-.3.8,0,1.1.15.15.35.23.55.23s.4-.08.55-.23l10.69-10.69c.3-.3.3-.8,0-1.1Z"/><path d="M15.57,39.78c-.4-.16-.85.02-1.02.42l-1.19,2.88c-.16.4.02.85.42,1.02.1.04.2.06.3.06.31,0,.6-.18.72-.48l1.19-2.88c.16-.4-.02-.85-.42-1.02Z"/><path d="M18.35,33.07c-.4-.16-.85.02-1.02.42l-1.19,2.88c-.16.4.02.85.42,1.02.1.04.2.06.3.06.31,0,.6-.18.72-.48l1.19-2.88c.16-.4-.02-.85-.42-1.02Z"/><path d="M5.47,29.78c-.16-.4-.62-.59-1.02-.42l-2.88,1.19c-.4.16-.59.62-.42,1.02.12.3.41.48.72.48.1,0,.2-.02.3-.06l2.88-1.19c.4-.16.59-.62.42-1.02Z"/><path d="M11.17,26.58l-2.88,1.19c-.4.16-.59.62-.42,1.02.12.3.41.48.72.48.1,0,.2-.02.3-.06l2.88-1.19c.4-.16.59-.62.42-1.02-.16-.4-.62-.59-1.02-.42Z"/><path d="M31.83,30.73c-.3-.3-.8-.3-1.1,0-.3.3-.3.8,0,1.1l11.17,11.17c.15.15.35.23.55.23s.4-.08.55-.23c.3-.3.3-.8,0-1.1l-11.17-11.17Z"/><path d="M30.77,40.2c-.16-.4-.62-.59-1.02-.42-.4.16-.59.62-.42,1.02l1.19,2.88c.12.3.41.48.72.48.1,0,.2-.02.3-.06.4-.16.59-.62.42-1.02l-1.19-2.88Z"/><path d="M27.99,33.49c-.16-.4-.62-.59-1.02-.42-.4.16-.59.62-.42,1.02l1.19,2.88c.12.3.41.48.72.48.1,0,.2-.02.3-.06.4-.16.59-.62.42-1.02l-1.19-2.88Z"/><path d="M33.14,27c-.16.4.02.85.42,1.02l2.88,1.19c.1.04.2.06.3.06.31,0,.6-.18.72-.48.16-.4-.02-.85-.42-1.02l-2.88-1.19c-.4-.16-.85.02-1.02.42Z"/><path d="M43.74,30.55l-2.88-1.19c-.4-.16-.85.02-1.02.42s.02.85.42,1.02l2.88,1.19c.1.04.2.06.3.06.31,0,.6-.18.72-.48.16-.4-.02-.85-.42-1.02Z"/><path d="M33.79,0H11.53L0,11.53v33.79h45.32V11.53L33.79,0ZM42.22,12.82v29.4H3.1V12.82L12.82,3.1h19.69l9.71,9.71Z"/></svg>