<?xml version="1.0" encoding="UTF-8"?><svg id="Layer_1" xmlns="http://www.w3.org/2000/svg" xmlns:xlink="http://www.w3.org/1999/xlink" viewBox="0 0 45.32 45.32"><defs><style>.cls-1{fill:none;}.cls-2{clip-path:url(#clippath);}</style><clipPath id="clippath"><polygon class="cls-1" points="13.04 26.87 16.36 28.31 21.37 29.45 25.12 29.45 29.1 27.47 32.23 27.22 32.92 24.12 31.85 19.48 28.3 15.05 24.35 13.51 16.27 14.03 13.09 17.25 12.4 20.68 13.04 26.87"/></clipPath></defs><path d="M33.79,0H11.53L0,11.53v33.79h45.32V11.53L33.79,0ZM42.22,12.82v29.4H3.1V12.82L12.82,3.1h19.69l9.71,9.71Z"/><g class="cls-2"><path d="M29.06,20.87c-1.83-1.83-4.26-2.84-6.85-2.84s-5.02,1.01-6.85,2.84c-3.09,3.09-3.09,8.11,0,11.2,1.54,1.54,3.57,2.32,5.6,2.32s4.06-.77,5.6-2.32c2.4-2.4,2.4-6.3,0-8.7-2.4-2.4-6.3-2.4-8.7,0-1.71,1.71-1.71,4.48,0,6.19.83.83,1.93,1.28,3.1,1.28s2.27-.45,3.09-1.28c0,0,0,0,0,0,.49-.49.76-1.15.76-1.84s-.27-1.35-.76-1.84c-.49-.49-1.15-.76-1.84-.76s-1.35.27-1.84.76c-.3.3-.3.8,0,1.1.3.3.8.3,1.1,0,.39-.39,1.08-.39,1.48,0,.2.2.31.46.31.74s-.11.54-.31.74c0,0,0,0,0,0-.53.53-1.24.82-1.99.82s-1.46-.29-1.99-.82c-1.1-1.1-1.1-2.88,0-3.98,0,0,0,0,0,0,1.79-1.79,4.7-1.79,6.49,0,1.79,1.79,1.79,4.7,0,6.49-2.48,2.48-6.52,2.48-8.99,0-2.48-2.48-2.48-6.51,0-8.99,1.54-1.54,3.58-2.38,5.75-2.38s4.21.85,5.75,2.38c1.54,1.54,2.38,3.58,2.38,5.75s-.85,4.21-2.38,5.75c-.3.3-.3.8,0,1.1.15.15.35.23.55.23s.4-.08.55-.23c1.83-1.83,2.84-4.27,2.84-6.85s-1.01-5.02-2.84-6.85Z"/></g><path d="M42.8,29.53c0,.45-.39.81-.84.78-2.18-.12-3.4-.72-4.59-1.3-1.22-.6-2.38-1.16-4.74-1.16s-3.52.57-4.74,1.16c-1.33.65-2.7,1.32-5.42,1.32s-4.1-.67-5.43-1.32c-1.22-.6-2.38-1.16-4.74-1.16s-3.52.57-4.74,1.16c-1.19.58-2.41,1.18-4.59,1.3-.45.03-.84-.33-.84-.78h0c0-.41.32-.75.72-.78,1.89-.1,2.93-.61,4.02-1.14,1.33-.65,2.7-1.32,5.43-1.32s4.1.67,5.43,1.32c1.22.6,2.38,1.16,4.74,1.16s3.52-.57,4.74-1.16c1.33-.65,2.7-1.32,5.43-1.32s4.1.67,5.43,1.32c1.09.53,2.13,1.04,4.02,1.14.41.02.72.37.72.78h0Z"/><path d="M42.8,35.31c-2.72,0-4.1-.67-5.43-1.32-1.22-.6-2.38-1.16-4.74-1.16s-3.52.57-4.74,1.16c-.91.45-1.86.91-3.27,1.15-.42.07-.83-.21-.9-.64-.07-.42.21-.83.64-.9,1.19-.2,2-.6,2.85-1.02,1.33-.65,2.7-1.32,5.43-1.32s4.1.67,5.43,1.32c1.22.6,2.38,1.16,4.74,1.16.43,0,.78.35.78.78s-.35.78-.78.78Z"/><path d="M2.14,35.31c-.43,0-.78-.35-.78-.78s.35-.78.78-.78c2.36,0,3.52-.57,4.74-1.16,1.33-.65,2.7-1.32,5.43-1.32s4.1.67,5.42,1.32c.88.43,1.72.84,2.98,1.04.43.07.72.47.65.89-.07.43-.46.72-.89.65-1.5-.23-2.48-.71-3.42-1.18-1.22-.6-2.38-1.16-4.74-1.16s-3.52.57-4.74,1.16c-1.33.65-2.7,1.32-5.42,1.32Z"/><path d="M2.14,40.37c-.42,0-.77-.33-.78-.76-.01-.43.33-.79.76-.8.49-.01.98-.08,1.5-.19.42-.09.84.17.93.59.09.42-.17.84-.59.93-.62.14-1.2.21-1.8.23,0,0-.02,0-.02,0Z"/><path d="M42.79,40.37s-.02,0-.02,0c-.59-.02-1.18-.09-1.8-.23-.42-.09-.69-.51-.59-.93.09-.42.51-.69.93-.59.52.12,1.01.18,1.5.19.43.01.77.37.76.8-.01.42-.36.76-.78.76Z"/><path d="M22.47,40.37c-.63,0-1.26-.05-1.87-.14-1.51-.22-2.54-.71-3.54-1.18-.71-.34-1.39-.65-2.24-.87-2.42-.61-5.06-.3-7.23.85-.38.2-.85.06-1.06-.32-.2-.38-.06-.85.32-1.06,2.51-1.33,5.56-1.69,8.35-.99.99.26,1.77.62,2.52.97.93.44,1.82.85,3.1,1.04,1.07.16,2.21.16,3.28,0,1.29-.19,2.17-.61,3.11-1.05.75-.35,1.52-.72,2.51-.97,2.8-.71,5.84-.35,8.36.98.38.2.53.67.32,1.06-.2.38-.67.53-1.06.32-2.18-1.15-4.81-1.47-7.24-.85-.85.22-1.52.53-2.24.87-1,.47-2.02.95-3.54,1.18-.61.09-1.24.14-1.87.14Z"/></svg>