<svg width="194" height="38" viewBox="0 0 194 38" fill="none" xmlns="http://www.w3.org/2000/svg">
<path d="M64.714 6.33065H71.7154V6.62412H70.0384C69.6192 6.62412 69.3509 6.87566 69.2335 7.38714C69.1161 7.89861 69.0574 8.43524 69.0574 9.01379V28.7684C69.0574 29.347 69.1077 29.8836 69.2167 30.3951C69.3173 30.9066 69.594 31.1581 70.0384 31.1581H71.7154V31.4516H63.0371V31.1581H64.714C64.9488 31.1581 65.1417 31.0743 65.2842 30.9066C65.4268 30.7389 65.5358 30.5125 65.5945 30.2442C65.6615 29.9675 65.7035 29.674 65.7286 29.347C65.7538 29.02 65.7705 28.7013 65.7705 28.3911C65.7705 27.1921 65.7035 25.9427 65.5777 24.6347C65.4435 23.3267 65.0914 22.0941 64.5044 20.937C63.9175 19.7799 63.0119 18.757 61.7877 17.8849C60.5636 17.0129 58.8531 16.4092 56.6646 16.0654V28.8187C56.6898 29.3889 56.7568 29.9339 56.8575 30.4454C56.9581 30.9569 57.2348 31.2084 57.6792 31.2084H59.3561V31.4683H50.6779V31.2084H52.3548C52.5896 31.2084 52.7741 31.1246 52.8998 30.9569C53.034 30.7892 53.1262 30.5628 53.1933 30.2945C53.2604 30.0178 53.3023 29.7159 53.3275 29.3889C53.3526 29.0619 53.3694 28.7433 53.3694 28.4246V9.4498C53.3694 9.13957 53.3526 8.81256 53.3275 8.48555C53.3023 8.15854 53.252 7.85669 53.1933 7.57999C53.1262 7.30329 53.034 7.0769 52.8998 6.89243C52.7657 6.70797 52.5896 6.61573 52.3548 6.61573H50.6779V6.32227H59.3561V6.61573H57.6792C57.4696 6.61573 57.3019 6.6912 57.1677 6.83374C57.0336 6.97628 56.9329 7.16913 56.8575 7.40391C56.782 7.63868 56.7233 7.89861 56.6982 8.1837C56.673 8.46878 56.6562 8.74548 56.6562 9.00541V15.5372C58.1403 15.5875 59.4568 15.7216 60.6055 15.9313C61.7542 16.1409 62.7017 16.3589 63.4647 16.5937C63.7666 16.6943 64.0516 16.7865 64.32 16.8871C65.0243 17.1471 65.7705 16.6272 65.7705 15.8726V9.39111C65.7705 9.08087 65.7538 8.76225 65.7286 8.43524C65.7035 8.10823 65.6531 7.80638 65.5945 7.53806C65.5274 7.26137 65.4268 7.04336 65.2842 6.87566C65.1417 6.70797 64.9488 6.62412 64.714 6.62412H63.0371V6.33065H64.714Z" fill="#F4EDE9"/>
<path d="M81.5843 6.00366C82.5485 6.00366 83.5044 6.23844 84.4519 6.70799C85.3994 7.17754 86.2462 7.93217 86.9841 8.9635C87.722 9.99484 88.3257 11.3364 88.7952 12.9798C89.2648 14.6233 89.4995 16.6105 89.4995 18.9582C89.4995 21.306 89.2648 23.3351 88.7952 24.9701C88.3257 26.6135 87.722 27.9467 86.9841 28.9865C86.2462 30.0262 85.3994 30.7724 84.4519 31.242C83.5044 31.7115 82.5485 31.9463 81.5843 31.9463C80.6955 31.9463 79.7564 31.7115 78.7754 31.242C77.7859 30.7724 76.8804 30.0178 76.0587 28.9865C75.2286 27.9467 74.5494 26.6135 74.0212 24.9701C73.4929 23.3267 73.2246 21.3227 73.2246 18.9582C73.2246 16.5937 73.4929 14.6233 74.0212 12.9798C74.5494 11.3364 75.2286 10.0032 76.0587 8.9635C76.8888 7.92379 77.7943 7.17754 78.7754 6.70799C79.7648 6.23844 80.7039 6.00366 81.5843 6.00366ZM81.5843 31.242C82.4479 31.242 83.1606 30.9988 83.7308 30.5209C84.301 30.0429 84.7453 29.2967 85.064 28.2989C85.3826 27.3011 85.609 26.0266 85.7264 24.4838C85.8521 22.941 85.9108 21.0963 85.9108 18.9498C85.9108 16.8033 85.8521 14.9922 85.7264 13.4578C85.6006 11.915 85.3826 10.6405 85.064 9.64267C84.7453 8.64488 84.301 7.90702 83.7308 7.43747C83.1606 6.96792 82.4479 6.73314 81.5843 6.73314C79.9576 6.73314 78.7502 7.70578 77.9788 9.65944C77.199 11.6047 76.8133 14.7071 76.8133 18.9498C76.8133 23.1925 77.199 26.3368 77.9788 28.2989C78.7586 30.2609 79.9576 31.242 81.5843 31.242Z" fill="#F4EDE9"/>
<path d="M108.952 26.5966V30.68C108.952 30.9148 108.902 31.1076 108.793 31.2502C108.684 31.3927 108.491 31.4682 108.206 31.4682H91.4029V31.1747H93.0798C93.3901 31.1747 93.5913 30.9148 93.6836 30.3949C93.7758 29.8751 93.8177 29.3133 93.8177 28.7096V9.44964C93.8177 9.1394 93.8177 8.82077 93.8345 8.49377C93.8429 8.16676 93.8345 7.8649 93.7926 7.59659C93.7506 7.31989 93.6835 7.0935 93.5745 6.90903C93.4739 6.72457 93.2978 6.63234 93.0631 6.63234H91.3861V6.33887H100.064V6.63234H98.3874C98.1527 6.63234 97.985 6.7078 97.876 6.85034C97.7753 6.99288 97.6999 7.18573 97.658 7.42051C97.616 7.65528 97.5993 7.91521 97.5993 8.2003V31.1747H100.064C100.928 31.1747 101.85 31.116 102.84 30.9986C103.829 30.8812 104.76 30.6632 105.615 30.3362C106.47 30.0092 107.191 29.548 107.77 28.9443C108.34 28.3406 108.634 27.5608 108.634 26.5966V24.9196H108.927V26.5966H108.952Z" fill="#F4EDE9"/>
<path d="M117.136 31.4598H110.135V31.1663H111.812C112.021 31.1663 112.18 31.0405 112.298 30.7974C112.415 30.5458 112.508 30.2524 112.575 29.9002C112.642 29.548 112.675 29.1791 112.692 28.785C112.709 28.3909 112.709 28.0555 112.709 27.7705V9.09747C112.709 8.52731 112.633 7.96552 112.491 7.43728C112.348 6.90903 112.122 6.63234 111.803 6.63234H110.126V6.33887H118.805V6.63234H117.128C116.784 6.63234 116.532 6.90065 116.365 7.43728C116.197 7.97391 116.096 8.52731 116.071 9.09747V27.7621C116.071 28.0472 116.088 28.3909 116.13 28.7766C116.172 29.1707 116.23 29.5397 116.306 29.8918C116.381 30.244 116.49 30.5458 116.616 30.789C116.742 31.0322 116.918 31.1579 117.128 31.1579H118.805V31.4514H117.128L117.136 31.4598Z" fill="#F4EDE9"/>
<path d="M121.647 31.1663C121.857 31.1663 122.007 30.9986 122.1 30.6548C122.192 30.3195 122.259 29.9254 122.318 29.481C122.368 28.9863 122.393 28.4077 122.393 27.7621V9.09747C122.393 8.52731 122.351 7.96552 122.259 7.43728C122.167 6.90065 121.966 6.63234 121.655 6.63234H119.978V6.33887H128.464C130.417 6.33887 132.052 6.69103 133.352 7.39535C134.66 8.09968 135.7 9.05555 136.48 10.2713C137.259 11.4871 137.813 12.9042 138.123 14.5141C138.433 16.1323 138.593 17.0127 138.593 18.8406C138.593 20.4841 138.391 21.2806 137.989 22.8905C137.586 24.5088 136.974 25.951 136.153 27.2171C135.331 28.4832 134.283 29.5061 133 30.2859C131.717 31.0657 130.208 31.4598 128.464 31.4598H119.978V31.1663H121.655H121.647ZM128.372 31.1663C129.462 31.1663 130.518 30.7806 131.323 30.0511C132.128 29.3217 132.723 28.4329 133.218 27.2925C133.729 26.1187 134.107 24.7519 134.35 23.2007C134.593 21.6495 134.719 20.5344 134.719 18.8406C134.719 17.1469 134.61 15.8808 134.383 14.338C134.165 12.7952 133.805 11.4536 133.31 10.3049C132.815 9.15617 132.17 8.25899 131.373 7.60497C130.577 6.95096 129.604 6.62395 128.455 6.62395H126.183V31.1579H128.363L128.372 31.1663Z" fill="#F4EDE9"/>
<path d="M151.346 31.2083C151.656 31.2083 151.816 30.9987 151.816 30.5794C151.841 30.3698 151.782 29.9757 151.639 29.3888C151.497 28.8018 151.296 28.0807 151.036 27.2171C150.7 26.5882 150.281 25.9007 149.786 25.1461C149.292 24.3914 148.713 23.6787 148.068 23.0163C147.413 22.3539 146.676 21.7837 145.854 21.3142C145.032 20.8446 144.135 20.5847 143.171 20.5344L140.353 29.3804C140.194 29.7493 140.169 30.0763 140.278 30.3614C140.328 30.5962 140.639 30.7639 140.806 30.8477C141.343 31.1161 142.274 31.1831 142.274 31.1831H143.951V31.4766H135.784V31.1831H137.461C137.461 31.1831 137.93 31.2083 138.324 30.9651C138.551 30.831 138.744 30.7387 138.911 30.5543C139.079 30.3698 139.18 30.2524 139.263 30.026C139.339 29.808 139.423 29.59 139.498 29.3804L145.602 10.1288C146.122 8.22549 146.516 6.86715 146.776 6.06221C146.827 5.92805 146.902 5.7939 146.994 5.65135C147.086 5.50881 147.271 5.43335 147.564 5.43335C147.824 5.43335 147.992 5.50881 148.076 5.65135C148.151 5.7939 148.218 5.91967 148.269 6.02029C148.428 6.51499 148.638 7.23609 148.914 8.17519C149.191 9.11429 149.501 10.1875 149.853 11.4033C150.206 12.6191 150.583 13.9188 150.985 15.3191C151.388 16.7193 151.799 18.1112 152.218 19.5031C152.637 20.9033 153.04 22.2533 153.434 23.5529C153.828 24.861 154.18 26.0265 154.49 27.0578C154.801 28.0891 155.069 28.936 155.295 29.5984C155.513 30.2608 155.664 30.6465 155.748 30.7555C155.983 31.0657 156.201 31.2251 156.41 31.2251H158.205V31.485H149.686V31.2251H151.363L151.346 31.2083ZM143.322 20.09C144.831 20.1403 146.08 20.3499 147.061 20.7189C147.07 20.7189 147.078 20.7189 147.086 20.7273C147.942 21.0459 148.797 20.2577 148.512 19.3857C148.462 19.2264 148.403 19.0587 148.353 18.8994C148.026 17.9183 147.715 16.9876 147.413 16.0988C147.112 15.21 146.843 14.3883 146.609 13.6337C146.374 12.8791 146.181 12.2251 146.022 11.68L143.322 20.0984V20.09Z" fill="#F4EDE9"/>
<path d="M159.957 10.9254V6.88396C159.982 6.73304 160.041 6.60727 160.142 6.49826C160.242 6.38926 160.402 6.33057 160.62 6.33057H175.042C175.335 6.33057 175.436 6.48149 175.335 6.77496C175.234 7.06843 175.067 7.43736 174.824 7.87337L163.328 31.1999H167.512C168.543 31.1999 169.491 31.1412 170.363 31.0322C171.235 30.9232 171.981 30.7136 172.602 30.4118C173.222 30.1099 173.717 29.6739 174.069 29.1037C174.421 28.5336 174.606 27.8041 174.606 26.8985V25.2719H174.882V30.8645C174.882 31.2586 174.673 31.4515 174.262 31.4515H159.915C159.496 31.4515 159.354 31.2838 159.471 30.94C159.597 30.5962 159.899 30.0345 160.393 29.2463L171.344 6.61565H167.302C166.271 6.61565 165.324 6.67434 164.451 6.78335C163.579 6.89235 162.833 7.11035 162.213 7.42898C161.592 7.7476 161.106 8.18361 160.762 8.73701C160.418 9.29041 160.251 10.0199 160.251 10.9254V12.5521H159.974V10.9254H159.957Z" fill="#F4EDE9"/>
<path d="M178.655 6.33057H192.725C193.01 6.33057 193.211 6.40603 193.312 6.54857C193.413 6.69111 193.471 6.88396 193.471 7.11874V12.049H193.178V11.2105C193.178 10.5314 193.161 9.91088 193.136 9.3491C193.111 8.78732 192.926 8.30938 192.591 7.89853C192.247 7.49606 191.685 7.17743 190.889 6.95943C190.092 6.74142 188.927 6.62404 187.384 6.62404H183.2V18.0106H186.487C186.696 18.0106 186.998 17.9938 187.409 17.9687C187.812 17.9435 188.222 17.8513 188.642 17.692C189.061 17.5327 189.413 17.2728 189.715 16.9122C190.017 16.5433 190.168 16.0234 190.168 15.3442V13.6673H190.461V22.966H190.168V21.2891C190.168 20.6099 190.017 20.0901 189.715 19.7211C189.413 19.3522 189.053 19.0923 188.642 18.9413C188.222 18.782 187.812 18.6898 187.409 18.6646C187.007 18.6395 186.696 18.6227 186.487 18.6227H183.2V31.1496H187.384C188.927 31.1496 190.092 31.0406 190.889 30.8142C191.685 30.5962 192.247 30.2776 192.591 29.8751C192.926 29.4727 193.111 28.9863 193.136 28.4246C193.161 27.8628 193.178 27.2423 193.178 26.5631V24.8862H193.471V30.6549C193.471 30.8897 193.421 31.0826 193.312 31.2251C193.203 31.3676 193.01 31.4431 192.725 31.4431H176.978V31.1496H178.655C178.865 31.1496 179.024 31.0239 179.125 30.7807C179.226 30.5375 179.301 30.2357 179.343 29.8835C179.385 29.5314 179.402 29.1624 179.402 28.7683V9.09756C179.402 8.52739 179.36 7.96561 179.267 7.43736C179.175 6.90073 178.974 6.63242 178.664 6.63242H176.987V6.33895H178.664L178.655 6.33057Z" fill="#F4EDE9"/>
<mask id="mask0_147_1388" style="mask-type:luminance" maskUnits="userSpaceOnUse" x="10" y="11" width="18" height="14">
<path d="M11.0931 22.53L13.8769 23.7374L18.0777 24.6933H21.2304L24.5591 23.0331L27.192 22.8235L27.7621 20.2242L26.8734 16.3336L23.8967 12.6191L20.5847 11.3279L13.8098 11.7639L11.135 14.4638L10.5649 17.3398L11.0931 22.53Z" fill="white"/>
</mask>
<g mask="url(#mask0_147_1388)">
<path d="M24.534 14.1452C22.9995 12.6108 20.962 11.7639 18.7904 11.7639C16.6187 11.7639 14.5812 12.6108 13.0468 14.1452C10.4558 16.7361 10.4558 20.9453 13.0468 23.5362C14.338 24.8275 16.0401 25.4815 17.7423 25.4815C19.4444 25.4815 21.1465 24.8358 22.4378 23.5362C24.4501 21.5238 24.4501 18.2538 22.4378 16.2414C20.4254 14.2291 17.1553 14.2291 15.143 16.2414C13.7092 17.6752 13.7092 19.9978 15.143 21.4316C15.8389 22.1276 16.7612 22.5049 17.7423 22.5049C18.7233 22.5049 19.6456 22.1276 20.3332 21.4316C20.744 21.0208 20.9704 20.4674 20.9704 19.8888C20.9704 19.3103 20.744 18.7569 20.3332 18.346C19.9223 17.9351 19.3689 17.7088 18.7904 17.7088C18.2118 17.7088 17.6584 17.9351 17.2476 18.346C16.996 18.5975 16.996 19.0168 17.2476 19.2683C17.4991 19.5199 17.9183 19.5199 18.1699 19.2683C18.4969 18.9413 19.0754 18.9413 19.4108 19.2683C19.5785 19.436 19.6708 19.654 19.6708 19.8888C19.6708 20.1236 19.5785 20.3416 19.4108 20.5093C18.9664 20.9537 18.3711 21.1968 17.7423 21.1968C17.1134 21.1968 16.5181 20.9537 16.0737 20.5093C15.1513 19.587 15.1513 18.0945 16.0737 17.1721C17.5746 15.6712 20.0145 15.6712 21.5154 17.1721C23.0163 18.673 23.0163 21.113 21.5154 22.6139C19.436 24.6933 16.0485 24.6933 13.9775 22.6139C11.898 20.5344 11.898 17.1554 13.9775 15.0759C15.2687 13.7847 16.9792 13.0803 18.7987 13.0803C20.6182 13.0803 22.3288 13.793 23.62 15.0759C24.9113 16.3672 25.6156 18.0777 25.6156 19.8972C25.6156 21.7167 24.9029 23.4272 23.62 24.7185C23.3685 24.97 23.3685 25.3892 23.62 25.6408C23.7458 25.7666 23.9135 25.8336 24.0812 25.8336C24.2489 25.8336 24.4166 25.7666 24.5423 25.6408C26.0768 24.1064 26.9236 22.0605 26.9236 19.8972C26.9236 17.7339 26.0768 15.688 24.5423 14.1536L24.534 14.1452Z" fill="#F4EDE9"/>
</g>
<path d="M28.3323 0H9.6677L0 9.6677V38H38V9.6677L28.3323 0ZM35.4007 10.7493V35.4007H2.59929V10.7493L10.7493 2.59929H27.259L35.4007 10.741V10.7493Z" fill="#F4EDE9"/>
<path d="M36.0464 25.4312C33.7657 25.4312 32.6086 24.8694 31.4934 24.3244C30.4704 23.8213 29.4978 23.3517 27.519 23.3517C25.5402 23.3517 24.5675 23.8297 23.5446 24.3244C22.4294 24.8694 21.2807 25.4312 19 25.4312C16.7193 25.4312 15.5622 24.8694 14.4471 24.3244C13.4241 23.8213 12.4515 23.3517 10.4727 23.3517C8.49383 23.3517 7.52119 23.8297 6.49825 24.3244C5.38307 24.8694 4.23435 25.4312 1.95367 25.4312V24.1231C3.93249 24.1231 4.90513 23.6452 5.92808 23.1505C7.04326 22.6055 8.19198 22.0437 10.481 22.0437C12.7701 22.0437 13.9188 22.6055 15.034 23.1505C16.0569 23.6536 17.0296 24.1231 19.0084 24.1231C20.9872 24.1231 21.9599 23.6452 22.9828 23.1505C24.098 22.6055 25.2467 22.0437 27.5358 22.0437C29.8248 22.0437 30.9735 22.6055 32.0887 23.1505C33.1117 23.6536 34.0843 24.1231 36.0631 24.1231V25.4312H36.0464Z" fill="#F4EDE9"/>
<path d="M36.0463 29.6068C33.7657 29.6068 32.6086 29.045 31.4934 28.5C30.4704 27.9969 29.4978 27.5274 27.519 27.5274C25.5402 27.5274 24.5675 28.0053 23.5446 28.5C22.7816 28.8773 21.985 29.263 20.8027 29.4642C20.4506 29.5229 20.1068 29.2882 20.0481 28.9276C19.9894 28.5755 20.2242 28.2317 20.5847 28.173C21.5825 28.0053 22.2617 27.6699 22.9744 27.3177C24.0896 26.7727 25.2383 26.2109 27.5274 26.2109C29.8164 26.2109 30.9651 26.7727 32.0803 27.3177C33.1033 27.8208 34.0759 28.2904 36.0547 28.2904C36.4153 28.2904 36.7087 28.5838 36.7087 28.9444C36.7087 29.3049 36.4153 29.5984 36.0547 29.5984L36.0463 29.6068Z" fill="#F4EDE9"/>
<path d="M1.95364 29.6067C1.59309 29.6067 1.29962 29.3132 1.29962 28.9527C1.29962 28.5921 1.59309 28.2987 1.95364 28.2987C3.93245 28.2987 4.90509 27.8207 5.92804 27.326C7.04322 26.781 8.19194 26.2192 10.481 26.2192C12.7701 26.2192 13.9188 26.781 15.0256 27.326C15.7634 27.6866 16.4678 28.0304 17.5242 28.1981C17.8848 28.2567 18.128 28.5921 18.0693 28.9443C18.0106 29.3049 17.6836 29.548 17.323 29.4893C16.0653 29.2965 15.2436 28.894 14.4554 28.4999C13.4325 27.9968 12.4598 27.5273 10.481 27.5273C8.50218 27.5273 7.52954 28.0052 6.50659 28.4999C5.39141 29.0449 4.24269 29.6067 1.96202 29.6067H1.95364Z" fill="#F4EDE9"/>
<path d="M1.9537 33.8494C1.60153 33.8494 1.30806 33.5727 1.29968 33.2122C1.2913 32.8517 1.57638 32.5498 1.93693 32.5414C2.34778 32.533 2.75864 32.4743 3.19465 32.3821C3.54681 32.3066 3.89897 32.5246 3.97444 32.8768C4.0499 33.229 3.8319 33.5811 3.47973 33.6566C2.95987 33.774 2.47355 33.8327 1.97047 33.8494H1.9537Z" fill="#F4EDE9"/>
<path d="M36.0463 33.8496H36.0296C35.5349 33.8328 35.0402 33.7741 34.5203 33.6567C34.1681 33.5813 33.9418 33.2291 34.0256 32.8769C34.1011 32.5248 34.4532 32.2984 34.8054 32.3822C35.2414 32.4828 35.6523 32.5332 36.0631 32.5415C36.4237 32.5499 36.7087 32.8518 36.7004 33.2123C36.692 33.5645 36.3985 33.8496 36.0463 33.8496Z" fill="#F4EDE9"/>
<path d="M19 33.8495C18.4718 33.8495 17.9435 33.8075 17.4321 33.7321C16.166 33.5476 15.3023 33.1368 14.4638 32.7427C13.8685 32.4576 13.2983 32.1977 12.5856 32.0132C10.5565 31.5017 8.34292 31.7616 6.52341 32.7259C6.20479 32.8936 5.8107 32.7762 5.63462 32.4576C5.46692 32.139 5.58431 31.7449 5.90293 31.5688C8.00752 30.4536 10.5649 30.1518 12.9043 30.7387C13.7344 30.9567 14.3884 31.2586 15.0172 31.552C15.797 31.921 16.5433 32.2647 17.6165 32.424C18.5137 32.5582 19.4696 32.5582 20.3667 32.424C21.4484 32.2647 22.1863 31.9126 22.9744 31.5436C23.6033 31.2502 24.2489 30.9399 25.079 30.7303C27.4268 30.135 29.9757 30.4368 32.0887 31.552C32.4073 31.7197 32.5331 32.1138 32.357 32.4408C32.1893 32.7594 31.7953 32.8852 31.4682 32.7091C29.6404 31.7449 27.4352 31.4766 25.3976 31.9964C24.6849 32.1809 24.1231 32.4408 23.5194 32.7259C22.681 33.12 21.8257 33.5225 20.5512 33.7153C20.0397 33.7908 19.5115 33.8327 18.9833 33.8327L19 33.8495Z" fill="#F4EDE9"/>
<path d="M19 9.63431C18.6395 9.63431 18.346 9.34085 18.346 8.9803V1.95382C18.346 1.59327 18.6395 1.2998 19 1.2998C19.3606 1.2998 19.654 1.59327 19.654 1.95382V8.9803C19.654 9.34085 19.3606 9.63431 19 9.63431Z" fill="#F4EDE9"/>
<path d="M36.0464 19.8722H29.414C29.0534 19.8722 28.7599 19.5788 28.7599 19.2182C28.7599 18.8577 29.0534 18.5642 29.414 18.5642H36.0464C36.4069 18.5642 36.7004 18.8577 36.7004 19.2182C36.7004 19.5788 36.4069 19.8722 36.0464 19.8722Z" fill="#F4EDE9"/>
<path d="M26.2529 12.619C26.0852 12.619 25.9175 12.552 25.7917 12.4262C25.5401 12.1746 25.5401 11.7554 25.7917 11.5039L31.7617 5.53387C32.0132 5.28233 32.4325 5.28233 32.684 5.53387C32.9356 5.78542 32.9356 6.20466 32.684 6.4562L26.714 12.4262C26.5882 12.552 26.4205 12.619 26.2529 12.619Z" fill="#F4EDE9"/>
<path d="M22.8738 10.5146C22.7899 10.5146 22.7061 10.4979 22.6222 10.4643C22.2868 10.3302 22.1275 9.94445 22.27 9.60906L23.2678 7.18585C23.402 6.85046 23.7877 6.69114 24.1231 6.83369C24.4585 6.96784 24.6178 7.35354 24.4753 7.68894L23.4775 10.1122C23.3768 10.3637 23.1253 10.5146 22.8738 10.5146ZM25.2131 4.87164C25.1293 4.87164 25.0454 4.85487 24.9616 4.82133C24.6262 4.68717 24.4669 4.30147 24.6094 3.96608L25.6072 1.54287C25.7497 1.20747 26.1271 1.04816 26.4625 1.1907C26.7979 1.32486 26.9572 1.71056 26.8146 2.04595L25.8168 4.46917C25.7162 4.72071 25.4647 4.87164 25.2131 4.87164Z" fill="#F4EDE9"/>
<path d="M28.4162 15.9733C28.1562 15.9733 27.9131 15.8224 27.8125 15.5709C27.6699 15.2355 27.8292 14.8498 28.1646 14.7156L30.5795 13.7178C30.9149 13.5753 31.3006 13.7346 31.4347 14.07C31.5773 14.4054 31.4179 14.7911 31.0825 14.9252L28.6677 15.923C28.5839 15.9566 28.5 15.9733 28.4162 15.9733ZM34.0675 13.634C33.8076 13.634 33.5645 13.483 33.4638 13.2315C33.3213 12.8961 33.4806 12.5104 33.816 12.3762L36.2308 11.3784C36.5662 11.2359 36.9519 11.3952 37.0861 11.7306C37.2286 12.066 37.0693 12.4517 36.7339 12.5859L34.3191 13.5837C34.2352 13.6172 34.1514 13.634 34.0675 13.634Z" fill="#F4EDE9"/>
<path d="M8.59445 19.8722H1.96206C1.60151 19.8722 1.30804 19.5788 1.30804 19.2182C1.30804 18.8577 1.60151 18.5642 1.96206 18.5642H8.59445C8.955 18.5642 9.24847 18.8577 9.24847 19.2182C9.24847 19.5788 8.955 19.8722 8.59445 19.8722Z" fill="#F4EDE9"/>
<path d="M11.7555 12.619C11.5878 12.619 11.4201 12.552 11.2943 12.4262L5.32434 6.4562C5.0728 6.20466 5.0728 5.78542 5.32434 5.53387C5.57588 5.28233 5.99513 5.28233 6.24667 5.53387L12.2167 11.5039C12.4682 11.7554 12.4682 12.1746 12.2167 12.4262C12.0909 12.552 11.9232 12.619 11.7555 12.619Z" fill="#F4EDE9"/>
<path d="M15.1346 10.5146C14.8747 10.5146 14.6315 10.3637 14.5309 10.1122L13.5331 7.68894C13.3906 7.35354 13.5499 6.97623 13.8853 6.83369C14.2207 6.69953 14.6064 6.85046 14.7405 7.18585L15.7383 9.60906C15.8809 9.94445 15.7216 10.3218 15.3862 10.4643C15.3023 10.4979 15.2185 10.5146 15.1346 10.5146ZM12.7953 4.87164C12.5353 4.87164 12.2922 4.72071 12.1915 4.46917L11.1938 2.04595C11.0512 1.71056 11.2105 1.33324 11.5459 1.1907C11.8813 1.04816 12.267 1.20747 12.4012 1.54287L13.399 3.96608C13.5415 4.30147 13.3822 4.67879 13.0468 4.82133C12.963 4.85487 12.8791 4.87164 12.7953 4.87164Z" fill="#F4EDE9"/>
<path d="M9.58385 15.9733C9.5 15.9733 9.41615 15.9566 9.3323 15.923L6.91748 14.9252C6.58208 14.7911 6.42277 14.4054 6.56531 14.07C6.69947 13.7346 7.08517 13.5753 7.42057 13.7178L9.83539 14.7156C10.1708 14.8498 10.3301 15.2355 10.1876 15.5709C10.0869 15.8224 9.83539 15.9733 9.58385 15.9733ZM3.94087 13.634C3.85702 13.634 3.77317 13.6172 3.68932 13.5837L1.27449 12.5859C0.939101 12.4517 0.779789 12.066 0.922331 11.7306C1.06487 11.3952 1.44219 11.2359 1.77758 11.3784L4.19241 12.3762C4.5278 12.5104 4.68711 12.8961 4.54457 13.2315C4.44396 13.483 4.19241 13.634 3.94087 13.634Z" fill="#F4EDE9"/>
</svg>
