<svg width="106" height="106" viewBox="0 0 106 106" fill="none" xmlns="http://www.w3.org/2000/svg">
<g clip-path="url(#clip0_2_2268)">
<mask id="mask0_2_2268" style="mask-type:luminance" maskUnits="userSpaceOnUse" x="29" y="31" width="49" height="38">
<path d="M30.9437 62.8469L38.709 66.2149L50.427 68.8813H59.2213L68.5068 64.2502L75.8511 63.6655L77.4415 56.4149L74.9623 45.5622L66.6591 35.2008L57.4203 31.5989L38.5218 32.8151L31.0607 40.3464L29.4702 48.369L30.9437 62.8469Z" fill="white"/>
</mask>
<g mask="url(#mask0_2_2268)">
<path d="M68.4368 39.4576C64.1566 35.1774 58.473 32.8151 52.4152 32.8151C46.3574 32.8151 40.6738 35.1774 36.3936 39.4576C29.1663 46.6849 29.1663 58.4263 36.3936 65.6535C39.9955 69.2555 44.7436 71.0798 49.4916 71.0798C54.2396 71.0798 58.9876 69.2789 62.5895 65.6535C68.203 60.0401 68.203 50.9183 62.5895 45.3049C56.9761 39.6915 47.8543 39.6915 42.2409 45.3049C38.2413 49.3045 38.2413 55.7833 42.2409 59.7828C44.1822 61.7242 46.755 62.7767 49.4916 62.7767C52.2281 62.7767 54.8009 61.7242 56.7188 59.7828C57.8649 58.6368 58.4964 57.0931 58.4964 55.4792C58.4964 53.8654 57.8649 52.3217 56.7188 51.1756C55.5728 50.0295 54.0291 49.398 52.4152 49.398C50.8014 49.398 49.2577 50.0295 48.1116 51.1756C47.4099 51.8773 47.4099 53.0467 48.1116 53.7484C48.8133 54.4501 49.9827 54.4501 50.6844 53.7484C51.5966 52.8362 53.2105 52.8362 54.146 53.7484C54.6138 54.2162 54.8711 54.8243 54.8711 55.4792C54.8711 56.1341 54.6138 56.7422 54.146 57.21C52.9064 58.4497 51.2458 59.128 49.4916 59.128C47.7374 59.128 46.0767 58.4497 44.8371 57.21C42.2643 54.6372 42.2643 50.4739 44.8371 47.9011C49.0238 43.7144 55.8301 43.7144 60.0167 47.9011C64.2034 52.0878 64.2034 58.8941 60.0167 63.0807C54.2162 68.8813 44.7669 68.8813 38.9898 63.0807C33.1893 57.2802 33.1893 47.8543 38.9898 42.0538C42.5917 38.4519 47.3631 36.4872 52.4386 36.4872C57.5141 36.4872 62.2855 38.4753 65.8874 42.0538C69.4894 45.6558 71.4541 50.4272 71.4541 55.5026C71.4541 60.5781 69.466 65.3495 65.8874 68.9514C65.1857 69.6531 65.1857 70.8226 65.8874 71.5242C66.2383 71.8751 66.706 72.0622 67.1738 72.0622C67.6416 72.0622 68.1094 71.8751 68.4602 71.5242C72.7405 67.244 75.1028 61.537 75.1028 55.5026C75.1028 49.4682 72.7405 43.7612 68.4602 39.481L68.4368 39.4576Z" fill="#760933"/>
</g>
<path d="M79.0322 0H26.9678L0 26.9678V106H106V26.9678L79.0322 0ZM98.7493 29.985V98.7493H7.25066V29.985L29.985 7.25066H76.0384L98.7493 29.9616V29.985Z" fill="#760933"/>
<path d="M100.55 70.9396C94.1885 70.9396 90.9607 69.3725 87.85 67.8522C84.9965 66.4489 82.2833 65.1391 76.7635 65.1391C71.2436 65.1391 68.5305 66.4723 65.677 67.8522C62.5662 69.3725 59.3619 70.9396 53 70.9396C46.6381 70.9396 43.4104 69.3725 40.2997 67.8522C37.4462 66.4489 34.733 65.1391 29.2132 65.1391C23.6933 65.1391 20.9802 66.4723 18.1267 67.8522C15.0159 69.3725 11.8116 70.9396 5.44971 70.9396V67.2909C10.9696 67.2909 13.6827 65.9577 16.5362 64.5777C19.647 63.0574 22.8513 61.4904 29.2366 61.4904C35.6218 61.4904 38.8261 63.0574 41.9369 64.5777C44.7904 65.9811 47.5035 67.2909 53.0234 67.2909C58.5433 67.2909 61.2564 65.9577 64.1099 64.5777C67.2207 63.0574 70.425 61.4904 76.8103 61.4904C83.1955 61.4904 86.3998 63.0574 89.5106 64.5777C92.3641 65.9811 95.0772 67.2909 100.597 67.2909V70.9396H100.55Z" fill="#760933"/>
<path d="M100.55 82.5874C94.1883 82.5874 90.9606 81.0203 87.8498 79.5C84.9963 78.0967 82.2831 76.7869 76.7633 76.7869C71.2434 76.7869 68.5303 78.12 65.6768 79.5C63.5484 80.5525 61.3264 81.6284 58.0285 82.1898C57.0462 82.3535 56.0872 81.6986 55.9235 80.6929C55.7598 79.7105 56.4147 78.7515 57.4204 78.5878C60.2037 78.12 62.0982 77.1845 64.0863 76.2021C67.1971 74.6818 70.4014 73.1147 76.7867 73.1147C83.1719 73.1147 86.3763 74.6818 89.487 76.2021C92.3405 77.6055 95.0537 78.9153 100.574 78.9153C101.579 78.9153 102.398 79.7339 102.398 80.7396C102.398 81.7454 101.579 82.564 100.574 82.564L100.55 82.5874Z" fill="#760933"/>
<path d="M5.44985 82.5874C4.44411 82.5874 3.62549 81.7688 3.62549 80.7631C3.62549 79.7573 4.44411 78.9387 5.44985 78.9387C10.9697 78.9387 13.6829 77.6055 16.5363 76.2256C19.6471 74.7053 22.8514 73.1382 29.2367 73.1382C35.622 73.1382 38.8263 74.7053 41.9137 76.2256C43.9719 77.2313 45.9366 78.1903 48.8837 78.658C49.8894 78.8218 50.5677 79.7573 50.404 80.7397C50.2402 81.7454 49.328 82.4237 48.3223 82.26C44.8139 81.722 42.5218 80.5994 40.3232 79.5001C37.4697 78.0967 34.7566 76.7869 29.2367 76.7869C23.7168 76.7869 21.0037 78.1201 18.1502 79.5001C15.0394 81.0204 11.8351 82.5874 5.47324 82.5874H5.44985Z" fill="#760933"/>
<path d="M5.44986 94.4223C4.46752 94.4223 3.64889 93.6505 3.6255 92.6447C3.60211 91.639 4.39735 90.797 5.40308 90.7736C6.54916 90.7502 7.69523 90.5865 8.91147 90.3292C9.89382 90.1187 10.8762 90.7268 11.0867 91.7092C11.2972 92.6915 10.6891 93.6739 9.7067 93.8844C8.25657 94.2118 6.9 94.3755 5.49664 94.4223H5.44986Z" fill="#760933"/>
<path d="M100.55 94.4223H100.504C99.1236 94.3755 97.7436 94.2118 96.2935 93.8843C95.3111 93.6738 94.6796 92.6915 94.9135 91.7091C95.124 90.7268 96.1064 90.0953 97.0887 90.3292C98.3049 90.6098 99.451 90.7502 100.597 90.7736C101.603 90.7969 102.398 91.639 102.375 92.6447C102.351 93.627 101.533 94.4223 100.55 94.4223Z" fill="#760933"/>
<path d="M53.0001 94.4223C51.5265 94.4223 50.053 94.3054 48.6263 94.0949C45.0945 93.5803 42.6854 92.4342 40.3465 91.3349C38.6859 90.5397 37.0954 89.8147 35.1073 89.3001C29.4471 87.8733 23.2724 88.5984 18.1969 91.2882C17.3081 91.756 16.2088 91.4285 15.7176 90.5397C15.2498 89.6509 15.5773 88.5516 16.4661 88.0605C22.3368 84.9497 29.4705 84.1077 35.9961 85.7449C38.3116 86.353 40.136 87.1951 41.8902 88.0137C44.0654 89.0428 46.147 90.0018 49.1408 90.4462C51.6435 90.8204 54.3099 90.8204 56.8125 90.4462C59.8297 90.0018 61.888 89.0194 64.0866 87.9903C65.8408 87.1717 67.6417 86.3063 69.9573 85.7215C76.5062 84.0609 83.6166 84.9029 89.5107 88.0137C90.3995 88.4815 90.7503 89.5808 90.2591 90.4929C89.7913 91.3817 88.692 91.7326 87.7799 91.2414C82.681 88.5516 76.5296 87.8032 70.8461 89.2533C68.858 89.7679 67.2909 90.4929 65.6069 91.2882C63.2679 92.3875 60.8822 93.5101 57.3271 94.0481C55.9003 94.2586 54.4268 94.3755 52.9533 94.3755L53.0001 94.4223Z" fill="#760933"/>
<path d="M53.0001 26.8743C51.9944 26.8743 51.1758 26.0556 51.1758 25.0499V5.44973C51.1758 4.44399 51.9944 3.62537 53.0001 3.62537C54.0059 3.62537 54.8245 4.44399 54.8245 5.44973V25.0499C54.8245 26.0556 54.0059 26.8743 53.0001 26.8743Z" fill="#760933"/>
<path d="M100.55 55.4325H82.0495C81.0437 55.4325 80.2251 54.6139 80.2251 53.6082C80.2251 52.6024 81.0437 51.7838 82.0495 51.7838H100.55C101.556 51.7838 102.375 52.6024 102.375 53.6082C102.375 54.6139 101.556 55.4325 100.55 55.4325Z" fill="#760933"/>
<path d="M73.2316 35.2008C72.7638 35.2008 72.296 35.0137 71.9452 34.6629C71.2435 33.9612 71.2435 32.7917 71.9452 32.09L88.5983 15.4369C89.3 14.7352 90.4695 14.7352 91.1712 15.4369C91.8728 16.1386 91.8728 17.308 91.1712 18.0097L74.518 34.6629C74.1672 35.0137 73.6994 35.2008 73.2316 35.2008Z" fill="#760933"/>
<path d="M63.8059 29.3301C63.572 29.3301 63.3381 29.2833 63.1042 29.1897C62.1687 28.8155 61.7243 27.7396 62.1219 26.804L64.9052 20.0445C65.2794 19.109 66.3553 18.6646 67.2909 19.0622C68.2265 19.4364 68.6709 20.5123 68.2733 21.4479L65.4899 28.2074C65.2093 28.9091 64.5076 29.3301 63.8059 29.3301ZM70.3315 13.5891C70.0976 13.5891 69.8637 13.5423 69.6298 13.4488C68.6943 13.0745 68.2499 11.9986 68.6475 11.0631L71.4308 4.30358C71.8284 3.36801 72.8809 2.92362 73.8165 3.32123C74.7521 3.69546 75.1965 4.77137 74.7989 5.70694L72.0155 12.4664C71.7349 13.1681 71.0332 13.5891 70.3315 13.5891Z" fill="#760933"/>
<path d="M79.2659 44.5565C78.5408 44.5565 77.8625 44.1355 77.5819 43.4338C77.1842 42.4982 77.6286 41.4223 78.5642 41.0481L85.3003 38.2648C86.2359 37.8672 87.3118 38.3116 87.686 39.2471C88.0836 40.1827 87.6392 41.2586 86.7037 41.6328L79.9676 44.4162C79.7337 44.5097 79.4998 44.5565 79.2659 44.5565ZM95.0302 38.0309C94.3052 38.0309 93.6269 37.6099 93.3462 36.9082C92.9486 35.9727 93.393 34.8968 94.3286 34.5225L101.065 31.7392C102 31.3416 103.076 31.786 103.45 32.7216C103.848 33.6571 103.404 34.733 102.468 35.1073L95.7319 37.8906C95.498 37.9841 95.2641 38.0309 95.0302 38.0309Z" fill="#760933"/>
<path d="M23.9742 55.4325H5.47329C4.46755 55.4325 3.64893 54.6139 3.64893 53.6082C3.64893 52.6024 4.46755 51.7838 5.47329 51.7838H23.9742C24.9799 51.7838 25.7985 52.6024 25.7985 53.6082C25.7985 54.6139 24.9799 55.4325 23.9742 55.4325Z" fill="#760933"/>
<path d="M32.7915 35.2008C32.3237 35.2008 31.8559 35.0137 31.5051 34.6629L14.8519 18.0097C14.1503 17.308 14.1503 16.1386 14.8519 15.4369C15.5536 14.7352 16.7231 14.7352 17.4248 15.4369L34.0779 32.09C34.7796 32.7917 34.7796 33.9612 34.0779 34.6629C33.7271 35.0137 33.2593 35.2008 32.7915 35.2008Z" fill="#760933"/>
<path d="M42.2174 29.3301C41.4923 29.3301 40.814 28.9091 40.5333 28.2074L37.75 21.4479C37.3524 20.5123 37.7968 19.4598 38.7324 19.0622C39.6679 18.688 40.7438 19.109 41.1181 20.0445L43.9014 26.804C44.299 27.7396 43.8546 28.7921 42.919 29.1897C42.6852 29.2833 42.4513 29.3301 42.2174 29.3301ZM35.6918 13.5891C34.9667 13.5891 34.2884 13.1681 34.0078 12.4664L31.2244 5.70694C30.8268 4.77137 31.2712 3.71885 32.2068 3.32123C33.1423 2.92362 34.2183 3.36801 34.5925 4.30358L37.3758 11.0631C37.7734 11.9986 37.329 13.0512 36.3935 13.4488C36.1596 13.5423 35.9257 13.5891 35.6918 13.5891Z" fill="#760933"/>
<path d="M26.7337 44.5565C26.4998 44.5565 26.2659 44.5097 26.032 44.4162L19.2959 41.6328C18.3603 41.2586 17.9159 40.1827 18.3135 39.2471C18.6878 38.3116 19.7637 37.8672 20.6992 38.2648L27.4353 41.0481C28.3709 41.4223 28.8153 42.4982 28.4177 43.4338C28.137 44.1355 27.4353 44.5565 26.7337 44.5565ZM10.9927 38.0309C10.7588 38.0309 10.5249 37.9841 10.291 37.8906L3.55492 35.1073C2.61936 34.733 2.17496 33.6571 2.57258 32.7216C2.97019 31.786 4.02271 31.3416 4.95828 31.7392L11.6944 34.5225C12.6299 34.8968 13.0743 35.9727 12.6767 36.9082C12.3961 37.6099 11.6944 38.0309 10.9927 38.0309Z" fill="#760933"/>
</g>
<defs>
<clipPath id="clip0_2_2268">
<rect width="106" height="106" fill="white"/>
</clipPath>
</defs>
</svg>
