<svg width="142" height="27" viewBox="0 0 142 27" fill="none" xmlns="http://www.w3.org/2000/svg">
<path d="M13.8892 0.924057H20.8172V1.21543H19.1558C18.7405 1.21543 18.4746 1.46517 18.3583 1.97298C18.242 2.4808 18.1839 3.01359 18.1839 3.588V23.1764C18.1839 23.7424 18.2337 24.2836 18.3417 24.7914C18.4414 25.2992 18.7155 25.5489 19.1558 25.5489H20.8172V25.8403H12.2361V25.5489H13.8975C14.1301 25.5489 14.3212 25.4657 14.4624 25.2992C14.6036 25.1327 14.7116 24.9079 14.7697 24.6415C14.8362 24.3668 14.8777 24.0754 14.9026 23.7508C14.9276 23.4261 14.9442 23.1098 14.9442 22.8017C14.9442 21.6113 14.8777 20.3709 14.7531 19.0805C14.6202 17.7902 14.2713 16.5664 13.6898 15.4176C13.1084 14.2688 12.2112 13.2615 10.9984 12.3874C9.78557 11.5216 8.09096 10.9222 5.92285 10.5809V23.2263C5.94777 23.7924 6.01422 24.3335 6.11391 24.833C6.21359 25.3408 6.48772 25.5906 6.92799 25.5906H8.58938V25.8486H0V25.5906H1.66139C1.89398 25.5906 2.07674 25.5073 2.20134 25.3408C2.33425 25.1743 2.42563 24.9495 2.49208 24.6832C2.55854 24.4084 2.60007 24.1171 2.62499 23.7924C2.64991 23.4677 2.66653 23.1514 2.66653 22.8434V4.03755C2.66653 3.72953 2.64991 3.41318 2.62499 3.08851C2.60007 2.76385 2.55023 2.46415 2.49208 2.19776C2.42563 1.92304 2.33425 1.69827 2.20134 1.51512C2.06843 1.33197 1.89398 1.2404 1.66139 1.2404H0V0.949031H8.58107V1.2404H6.91968C6.71201 1.2404 6.54587 1.31532 6.41296 1.45685C6.28005 1.59837 6.18036 1.78984 6.1056 2.02294C6.03084 2.25603 5.97269 2.5141 5.94777 2.79715C5.92285 3.08019 5.90623 3.35491 5.90623 3.61298V10.0897C7.37656 10.1397 8.68075 10.2729 9.8188 10.481C10.9569 10.6891 11.8955 10.9055 12.6432 11.1386C12.9339 11.2385 13.2163 11.3301 13.4905 11.43C14.1883 11.6881 14.9276 11.1719 14.9276 10.4227V3.99592C14.9276 3.6879 14.911 3.37156 14.886 3.04689C14.8611 2.72222 14.8113 2.42253 14.7531 2.15613C14.6867 1.88141 14.587 1.66496 14.4458 1.49847C14.3045 1.33197 14.1135 1.24873 13.8809 1.24873H12.2195V0.957351H13.8809L13.8892 0.924057Z" fill="#F4EDE9"/>
<path d="M30.586 0.59938C31.5413 0.59938 32.4799 0.832479 33.4269 1.29867C34.3656 1.76486 35.2046 2.50577 35.9356 3.53805C36.6666 4.57034 37.2647 5.89398 37.7299 7.51733C38.1951 9.149 38.4277 11.122 38.4277 13.4446C38.4277 15.7672 38.1951 17.7819 37.7299 19.4052C37.2647 21.0285 36.6666 22.3605 35.9356 23.3845C35.2046 24.4084 34.3656 25.1577 33.4269 25.6239C32.4883 26.09 31.5413 26.3231 30.586 26.3231C29.7054 26.3231 28.7834 26.09 27.8031 25.6239C26.8312 25.1577 25.9341 24.4084 25.1117 23.3845C24.2976 22.3605 23.6248 21.0285 23.1014 19.4052C22.5781 17.7819 22.3123 15.7922 22.3123 13.4446C22.3123 11.097 22.5781 9.149 23.1014 7.51733C23.6248 5.89398 24.2976 4.56201 25.1117 3.53805C25.9258 2.5141 26.8229 1.76486 27.8031 1.29867C28.7751 0.832479 29.7054 0.59938 30.586 0.59938ZM30.586 25.6239C31.4416 25.6239 32.1477 25.3824 32.7125 24.9079C33.2774 24.4334 33.7094 23.7008 34.0333 22.7018C34.349 21.7112 34.5733 20.4541 34.6896 18.9224C34.8142 17.3906 34.8723 15.5675 34.8723 13.4363C34.8723 11.3051 34.8142 9.51529 34.6896 7.98352C34.565 6.45175 34.349 5.19469 34.0333 4.20404C33.7177 3.21338 33.2774 2.48913 32.7125 2.02293C32.1477 1.55674 31.4416 1.32364 30.586 1.32364C28.9744 1.32364 27.7865 2.28933 27.014 4.22069C26.2414 6.15206 25.8593 9.22392 25.8593 13.428C25.8593 17.632 26.2414 20.7455 27.014 22.6935C27.7865 24.6415 28.9744 25.6072 30.586 25.6072V25.6239Z" fill="#F4EDE9"/>
<path d="M57.6584 21.0119V25.0661C57.6584 25.2992 57.6086 25.4907 57.5006 25.6322C57.3926 25.7737 57.2015 25.8486 56.9191 25.8486H40.2969V25.5573H41.9583C42.2656 25.5573 42.465 25.2992 42.5564 24.7831C42.6477 24.2669 42.6893 23.7092 42.6893 23.1181V4.02923C42.6893 3.72121 42.6893 3.40487 42.7059 3.0802C42.7142 2.75553 42.7059 2.45583 42.6644 2.18944C42.6228 1.91472 42.5564 1.68995 42.4484 1.5068C42.3487 1.32366 42.1743 1.23208 41.9417 1.23208H40.2803V0.940712H48.8613V1.23208H47.2C46.9674 1.23208 46.8012 1.30701 46.6932 1.44853C46.5935 1.59005 46.5188 1.78152 46.4773 2.01462C46.4357 2.24771 46.4191 2.50578 46.4191 2.78883V25.5656H48.8613C49.7086 25.5656 50.6307 25.5073 51.6109 25.3908C52.5912 25.2742 53.5049 25.0578 54.3605 24.7331C55.2078 24.4084 55.9222 23.9506 56.4871 23.3595C57.052 22.7684 57.3344 21.9859 57.3344 21.0286V19.3636H57.6252V21.0286L57.6584 21.0119Z" fill="#F4EDE9"/>
<path d="M65.7493 25.8403H58.8213V25.5489H60.4827C60.6904 25.5489 60.8482 25.4241 60.9645 25.1826C61.0808 24.9329 61.1722 24.6415 61.2386 24.2919C61.3051 23.9422 61.3383 23.5759 61.3549 23.1847C61.3715 22.7934 61.3715 22.4604 61.3715 22.1774V3.67125C61.3715 3.10516 61.2968 2.55572 61.1555 2.02293C61.0143 1.49014 60.79 1.22374 60.4744 1.22374H58.813V0.932373H67.3941V1.22374H65.7327C65.4004 1.22374 65.1429 1.49014 64.9767 2.02293C64.8106 2.55572 64.7109 3.10516 64.686 3.67125V22.1774C64.686 22.4604 64.7026 22.8017 64.7441 23.1847C64.7857 23.5759 64.8438 23.9422 64.9186 24.2919C64.9934 24.6415 65.1013 24.9412 65.2259 25.1826C65.3505 25.4241 65.525 25.5489 65.7327 25.5489H67.3941V25.8403H65.7327H65.7493Z" fill="#F4EDE9"/>
<path d="M70.2183 25.5489C70.4259 25.5489 70.5755 25.3824 70.6668 25.0411C70.7582 24.7081 70.8247 24.3169 70.8828 23.8756C70.9327 23.3845 70.9576 22.8184 70.9576 22.1691V3.66292C70.9576 3.09684 70.9161 2.5474 70.8247 2.01461C70.7333 1.48182 70.5339 1.21543 70.2266 1.21543H68.5652V0.924057H76.9635C78.899 0.924057 80.5106 1.2737 81.8064 1.97298C83.094 2.67227 84.1324 3.6213 84.9049 4.82008C85.6775 6.02718 86.2174 7.42576 86.5331 9.03245C86.8405 10.6391 86.9983 11.5133 86.9983 13.3197C86.9983 14.9514 86.7989 15.7339 86.4002 17.3406C86.0015 18.9473 85.395 20.3709 84.581 21.6279C83.7669 22.885 82.7285 23.9006 81.4659 24.6748C80.2032 25.449 78.6997 25.8403 76.9718 25.8403H68.5735V25.5489H70.2349H70.2183ZM76.8638 25.5489C77.9437 25.5489 78.9904 25.166 79.7879 24.4417C80.5853 23.7175 81.1668 22.835 81.6569 21.7112C82.1636 20.5457 82.5375 19.1971 82.7784 17.657C83.0193 16.1169 83.1439 15.0097 83.1439 13.3281C83.1439 11.6464 83.0359 10.3894 82.8116 8.86595C82.5956 7.3425 82.2384 6.01053 81.7483 4.87003C81.2582 3.72953 80.6186 2.83877 79.8294 2.18943C79.0402 1.54009 78.0766 1.21543 76.9469 1.21543H74.704V25.5406H76.8638V25.5489Z" fill="#F4EDE9"/>
<path d="M99.6 25.5822C99.9074 25.5822 100.065 25.3741 100.065 24.9579C100.09 24.7498 100.032 24.3585 99.8908 23.7757C99.7496 23.193 99.5502 22.4771 99.2927 21.6196C98.9604 20.9952 98.5451 20.3126 98.0549 19.5634C97.5648 18.8141 97 18.1065 96.352 17.4489C95.7041 16.7912 94.9814 16.2251 94.1673 15.7589C93.3532 15.2927 92.4727 15.0347 91.5174 14.9847L88.7262 23.7508C88.5684 24.1171 88.5435 24.4334 88.6515 24.7248C88.7013 24.9579 89.0087 25.1244 89.1748 25.2076C89.7065 25.474 90.6285 25.5406 90.6285 25.5406H92.2899V25.832H84.2073V25.5406H85.8687C85.8687 25.5406 86.3339 25.5656 86.7243 25.3242C86.9486 25.191 87.1396 25.0994 87.3058 24.9163C87.4719 24.7331 87.5716 24.6166 87.6546 24.3918C87.7294 24.1753 87.8125 23.9589 87.8872 23.7508L93.9264 4.66191C94.4414 2.77217 94.8318 1.43187 95.0894 0.624363C95.1392 0.491166 95.214 0.357964 95.3053 0.216441C95.3967 0.074919 95.5795 0 95.8702 0C96.1277 0 96.2939 0.074919 96.3769 0.216441C96.4517 0.357964 96.5182 0.482838 96.568 0.582736C96.7258 1.0739 96.9335 1.78151 97.2076 2.71389C97.4818 3.64628 97.7891 4.71186 98.138 5.91064C98.4869 7.11774 98.8607 8.40809 99.2594 9.79001C99.6582 11.1719 100.065 12.5622 100.481 13.9441C100.896 15.326 101.295 16.6663 101.677 17.9567C102.067 19.247 102.416 20.4042 102.723 21.4281C103.031 22.4521 103.297 23.2929 103.513 23.9506C103.729 24.6082 103.878 24.9912 103.961 25.0911C104.194 25.3991 104.41 25.5573 104.617 25.5573H106.395V25.8153H97.9636V25.5573H99.625L99.6 25.5822ZM91.6586 14.5685C93.1538 14.6184 94.3916 14.8265 95.3552 15.1928C95.3635 15.1928 95.3718 15.1928 95.3801 15.2012C96.2274 15.5175 97.0747 14.735 96.7923 13.8692C96.7424 13.711 96.6843 13.5445 96.6345 13.3863C96.3105 12.4123 96.0031 11.4883 95.7041 10.6142C95.405 9.74007 95.1392 8.92423 94.9149 8.16667C94.6823 7.41743 94.4913 6.76809 94.3334 6.22698L91.6586 14.5685Z" fill="#F4EDE9"/>
<path d="M108.115 5.47774V1.46517C108.14 1.32365 108.198 1.19045 108.297 1.08223C108.397 0.974005 108.555 0.915733 108.771 0.915733H123.042C123.333 0.915733 123.433 1.05725 123.333 1.35695C123.233 1.64832 123.067 2.01461 122.826 2.4475L111.454 25.5739H115.599C116.621 25.5739 117.56 25.5156 118.415 25.4074C119.271 25.2992 120.018 25.0911 120.633 24.7914C121.248 24.4917 121.738 24.0588 122.087 23.501C122.436 22.9433 122.61 22.2107 122.61 21.3116V19.6966H122.884V25.2409C122.884 25.6322 122.677 25.8237 122.27 25.8237H108.073C107.658 25.8237 107.517 25.6572 107.641 25.3158C107.766 24.9745 108.065 24.4168 108.547 23.6426L119.379 1.2071H115.383C114.361 1.2071 113.423 1.25705 112.567 1.3736C111.703 1.48182 110.964 1.69827 110.349 2.01461C109.734 2.33096 109.253 2.76384 108.912 3.30496C108.571 3.8544 108.405 4.57034 108.405 5.46942V7.08444H108.131V5.46942L108.115 5.47774Z" fill="#F4EDE9"/>
<path d="M126.614 0.924057H140.537C140.819 0.924057 141.01 0.998976 141.118 1.1405C141.218 1.28202 141.276 1.47349 141.276 1.70659V6.59327H140.985V5.76079C140.985 5.08648 140.969 4.47044 140.944 3.921C140.919 3.36323 140.736 2.88872 140.404 2.4808C140.072 2.08121 139.507 1.77319 138.717 1.54842C137.928 1.33197 136.774 1.21543 135.253 1.21543H131.108V12.5039H134.356C134.564 12.5039 134.863 12.4873 135.27 12.4623C135.669 12.4373 136.076 12.3457 136.491 12.1876C136.907 12.0294 137.255 11.7713 137.555 11.4134C137.854 11.0554 138.003 10.5309 138.003 9.86494V8.19997H138.294V17.4239H138.003V15.7589C138.003 15.0846 137.854 14.5685 137.555 14.2105C137.255 13.8525 136.907 13.5861 136.491 13.4363C136.076 13.2781 135.669 13.1865 135.27 13.1616C134.871 13.1366 134.564 13.1199 134.356 13.1199H131.108V25.5323H135.253C136.774 25.5323 137.928 25.4241 138.717 25.1993C139.507 24.9829 140.063 24.6665 140.404 24.2669C140.736 23.8673 140.919 23.3845 140.944 22.835C140.969 22.2773 140.985 21.6612 140.985 20.9952V19.3303H141.276V25.0494C141.276 25.2825 141.226 25.474 141.118 25.6155C141.01 25.7571 140.819 25.832 140.537 25.832H124.961V25.5406H126.623C126.83 25.5406 126.98 25.4157 127.088 25.1743C127.196 24.9329 127.262 24.6332 127.304 24.2836C127.345 23.9339 127.362 23.5676 127.362 23.1764V3.66292C127.362 3.09684 127.32 2.5474 127.229 2.01461C127.138 1.48182 126.938 1.21543 126.631 1.21543H124.969V0.924057H126.631H126.614Z" fill="#F4EDE9"/>
</svg>
