<svg width="44" height="70" viewBox="0 0 44 70" fill="none" xmlns="http://www.w3.org/2000/svg">
<path d="M2.38867 0C2.86498 4.49006 4.84897 8.65359 8.09863 11.8975C11.9803 15.7513 17.0515 17.6894 22.1436 17.6895C27.2356 17.6894 32.3068 15.7721 36.1885 11.8975C39.4894 8.61242 41.1838 4.3208 41.2715 0H43.5352C43.443 4.90076 41.5307 9.77372 37.7959 13.502C35.4818 15.8118 32.7838 17.4995 29.9053 18.5693C29.8928 18.5831 29.8814 18.5981 29.8682 18.6113C26.1118 22.3609 24.0451 27.3398 24.0449 32.6309C24.0449 37.9221 26.1117 42.9016 29.8682 46.6514C33.6551 50.4109 38.574 52.3452 43.54 52.4375V54.708C38.0085 54.6158 32.4858 52.4723 28.2607 48.2549C24.0661 44.0885 21.7705 38.5262 21.7705 32.6309C21.7707 27.8958 23.2656 23.3765 26.0166 19.6221C24.737 19.8465 23.441 19.9599 22.1436 19.96C18.9131 19.9599 15.676 19.2586 12.6885 17.8545C13.8727 18.6071 14.9938 19.4976 16.0264 20.5283V20.5078C23.6851 28.1529 23.6849 40.6106 16.0264 48.2559C13.7432 50.5349 11.0863 52.2084 8.25098 53.2803C8.20793 53.3483 8.15755 53.4128 8.09863 53.4717C4.34233 57.2212 2.27657 62.2002 2.27637 67.4912C2.27637 68.2051 2.31438 68.914 2.38867 69.6143H0.102539C0.0360898 68.9129 0.000976562 68.2042 0.000976562 67.4912C0.00114616 62.7048 1.52753 58.1377 4.33594 54.3594C3.0275 54.5944 1.70153 54.7138 0.374023 54.7139C0.249489 54.7139 0.12454 54.7111 0 54.709V52.4385C0.124514 52.4408 0.249468 52.4434 0.374023 52.4434C5.46601 52.4432 10.5373 50.526 14.4189 46.6514C21.201 39.9018 21.2013 28.903 14.4189 22.1328C10.4936 18.2024 5.13313 16.5535 0 17.1865V14.9102C3.51683 14.5318 7.11708 15.0954 10.3848 16.5996C9.00162 15.7345 7.69378 14.7024 6.49121 13.502C2.80378 9.83941 0.585477 5.09794 0.102539 0H2.38867ZM9.99805 55.3887C17.6572 47.7438 30.137 47.7435 37.7959 55.3887V55.3672C41.72 59.2842 43.6321 64.4652 43.5352 69.6143H41.2715C41.3641 65.0573 39.6699 60.4674 36.1885 56.9922C29.427 50.2224 18.4085 50.2226 11.626 56.9922C8.18725 60.4247 6.78622 65.1385 7.42383 69.6143H5.10254C4.48002 64.5559 6.11194 59.2678 9.99805 55.3887ZM13.5244 58.9092C19.2635 53.2016 28.5719 53.2014 34.29 58.9092C37.2336 61.8583 38.6614 65.7519 38.5742 69.6143H36.2852C36.3781 66.3317 35.1726 63.0186 32.6621 60.5127C27.8206 55.68 19.9736 55.6804 15.1318 60.5127C12.661 62.9791 11.7741 66.4352 12.4658 69.6143H10.1406C9.48184 65.8428 10.608 61.8204 13.5244 58.9092ZM17.0303 62.4092C20.8285 58.6389 26.9854 58.6387 30.7627 62.4092C32.7385 64.3924 33.6792 67.0197 33.5879 69.6143H31.3008C31.399 67.5998 30.6775 65.5527 29.1348 64.0127C26.234 61.1173 21.5385 61.1175 18.6377 64.0127C17.7196 64.9499 17.1975 66.1791 17.1973 67.4912C17.1973 68.2387 17.3614 68.9593 17.6748 69.6143H15.2422C15.0327 68.9348 14.9229 68.2204 14.9229 67.4912C14.9231 65.5752 15.6742 63.763 17.0303 62.4092ZM23.876 64.5332C25.1279 64.5333 26.3176 65.0127 27.2148 65.9082C28.0912 66.8038 28.5926 67.9915 28.5928 69.2412C28.5928 69.3661 28.5867 69.4909 28.5771 69.6143H26.2871C26.3057 69.4915 26.3174 69.3666 26.3174 69.2412C26.3172 68.5958 26.0672 67.9708 25.6084 67.5127C25.1494 67.0545 24.5228 66.8048 23.876 66.8047C23.2292 66.8047 22.5818 67.0754 22.1436 67.5127C21.7054 67.9499 20.9754 67.9498 20.5371 67.5127C20.0989 67.0752 20.0989 66.3457 20.5371 65.9082C21.4344 65.0337 22.6241 64.5332 23.876 64.5332ZM0 19.9238C4.43826 19.2758 9.11519 20.6509 12.5195 24.0488C18.2376 29.7775 18.2375 39.0694 12.5195 44.7773C9.15972 48.1101 4.77716 49.7763 0.374023 49.7764C0.249477 49.7764 0.124523 49.7742 0 49.7715V47.501C0.124491 47.5041 0.249458 47.5059 0.374023 47.5059C4.17195 47.5057 7.99091 46.0476 10.8916 43.1523C15.733 38.3194 15.7332 30.4862 10.8916 25.6533C7.92752 22.6947 3.83756 21.5499 0 22.2139V19.9238ZM43.54 17.1865C39.8309 17.6438 36.2397 19.2919 33.3945 22.1318C27.5929 27.9231 27.5929 37.3601 33.3945 43.1514C36.201 45.9527 39.8475 47.4082 43.54 47.5V49.7705C39.2618 49.678 35.0114 47.9948 31.7666 44.7559C25.0676 38.0898 25.0678 27.2154 31.7666 20.5283C35.0562 17.2448 39.2358 15.3731 43.54 14.9102V17.1865ZM0 24.958C3.14084 24.2585 6.56044 25.1205 8.99316 27.5488C12.7704 31.3401 12.7702 37.4863 8.99316 41.2568C6.61418 43.6315 3.50423 44.8182 0.374023 44.8184C0.24941 44.8184 0.124503 44.8133 0 44.8096V42.5127C2.65524 42.6091 5.34262 41.6507 7.36523 39.6318C10.2657 36.7363 10.2658 32.0489 7.36523 29.1533C5.37002 27.1617 2.52537 26.54 0 27.2881V24.958ZM43.54 22.2139C41.109 22.6343 38.7781 23.7782 36.9004 25.6523C33.0396 29.5062 33.0397 35.777 36.9004 39.6309C38.7388 41.4659 41.1266 42.4243 43.54 42.5117V44.8086C40.5367 44.718 37.5785 43.5362 35.2939 41.2559C30.5357 36.5062 30.5358 28.7985 35.2939 24.0488C37.6164 21.7391 40.5232 20.3632 43.54 19.9229V22.2139ZM2.10645 29.6738C3.35835 29.674 4.54809 30.1532 5.44531 31.0488C6.32168 31.9445 6.82218 33.1321 6.82227 34.3818C6.82227 35.6315 6.34242 36.8191 5.44531 37.7148C4.04726 39.1104 2.18977 39.8191 0.353516 39.8193C0.235967 39.8193 0.117595 39.8154 0 39.8096V37.5342C1.37726 37.6318 2.78845 37.1587 3.83789 36.1113C4.29684 35.6531 4.54785 35.0275 4.54785 34.3818C4.54777 33.7362 4.29688 33.1115 3.83789 32.6533C3.37893 32.1952 2.75315 31.9445 2.10645 31.9443C1.45963 31.9443 0.812276 32.216 0.374023 32.6533C0.264741 32.7624 0.136539 32.8438 0 32.8984V30.1729C0.648687 29.8497 1.36673 29.6738 2.10645 29.6738ZM43.54 27.2861C42.3936 27.6256 41.313 28.2484 40.4072 29.1523C39.4891 30.0896 38.967 31.3187 38.9668 32.6309C38.9668 33.9433 39.4681 35.1729 40.4072 36.1104C41.2779 36.9793 42.3974 37.4524 43.54 37.5332V39.8086C41.8202 39.724 40.1087 39.0204 38.7998 37.7139C37.4434 36.3598 36.6924 34.5473 36.6924 32.6309C36.6926 30.7146 37.4435 28.9018 38.7998 27.5479C40.152 26.2057 41.804 25.3435 43.54 24.957V27.2861ZM43.54 32.8975C43.1289 33.0623 42.6348 32.9808 42.3057 32.6523C41.8674 32.2149 41.8674 31.4853 42.3057 31.0479C42.673 30.6898 43.0905 30.3957 43.54 30.1719V32.8975ZM7.42383 0C7.86192 3.0757 9.26293 6.03964 11.626 8.39844C14.5267 11.2937 18.3247 12.7519 22.1436 12.752C25.9417 12.7519 29.7613 11.294 32.6621 8.39844C34.9932 6.07138 36.1989 3.04819 36.2852 0H38.5742C38.4921 3.64027 37.0644 7.25396 34.29 10.0234C30.9301 13.3564 26.5469 15.0224 22.1436 15.0225C17.7402 15.0224 13.3371 13.3349 9.99805 10.002C7.18499 7.20272 5.5531 3.66162 5.10254 0H7.42383ZM12.4658 0C12.8549 1.78849 13.7418 3.49037 15.1318 4.87793C18.9926 8.73133 25.274 8.7314 29.1348 4.87793C30.4927 3.52227 31.2154 1.77327 31.3018 0H33.5879C33.5048 2.36541 32.5639 4.70375 30.7627 6.50195C28.3837 8.8767 25.2739 10.0644 22.1436 10.0645C19.0132 10.0644 15.9035 8.87673 13.5244 6.50195C11.6828 4.66354 10.5566 2.38164 10.1406 0H12.4658ZM17.6738 0C17.9107 0.49512 18.2334 0.952818 18.6377 1.35645C20.5577 3.27294 23.6884 3.27296 25.6084 1.35645C25.978 0.987169 26.2101 0.509209 26.2871 0H28.5771C28.4915 1.11173 28.0225 2.15462 27.2148 2.96094C25.8167 4.35651 23.9594 5.06528 22.123 5.06543C20.2866 5.06543 18.4285 4.35665 17.0303 2.96094C16.1899 2.12198 15.5832 1.10656 15.2422 0H17.6738Z" fill="#6E002B"/>
</svg>
