<svg width="195" height="68" viewBox="0 0 195 68" fill="none" xmlns="http://www.w3.org/2000/svg">
<path d="M182.777 61.6904C183.208 59.6866 185.217 58.398 187.226 58.875C189.661 59.4355 191.958 59.7198 194.253 59.7764C194.302 59.7751 194.352 59.771 194.401 59.7695V67.2217L194.306 67.2246H194.21L194.022 67.2197C193.983 67.2178 193.944 67.2141 193.905 67.2109C191.184 67.1023 188.459 66.7709 185.6 66.127C183.591 65.6976 182.299 63.6942 182.777 61.6904ZM6.88867 58.875C8.89763 58.4458 10.9064 59.6867 11.3369 61.6904C11.7672 63.6942 10.5236 65.6976 8.51465 66.127C5.65159 66.7718 2.96679 67.1028 0.202148 67.2109C0.135265 67.2163 0.067776 67.2175 0 67.2197V59.7695C2.24849 59.7016 4.50278 59.3784 6.88867 58.875ZM131.737 49.4287C145.131 46.0412 159.673 47.7579 171.728 54.1035C173.545 55.0578 174.262 57.3005 173.258 59.1611C172.301 60.9741 170.053 61.6902 168.188 60.6885C157.759 55.2017 145.179 53.6747 133.555 56.6328C129.489 57.6824 126.284 59.1611 122.84 60.7832C118.056 63.0256 113.177 65.3157 105.906 66.4131C102.988 66.8425 99.9745 67.0811 96.9609 67.0811L97.0566 67.1768C94.0433 67.1767 91.03 66.9381 88.1123 66.5088C80.8894 65.4592 75.9621 63.1213 71.1787 60.8789C67.7824 59.2567 64.5289 57.7782 60.4629 56.7285C48.887 53.8183 36.2589 55.2966 25.8789 60.7832C24.0613 61.7374 21.8132 61.0697 20.8086 59.2568C19.8519 57.4438 20.5211 55.2012 22.3389 54.1992C34.3454 47.8537 48.9353 46.1358 62.2812 49.4756C67.0166 50.716 70.7475 52.4337 74.335 54.1035C78.7836 56.2028 83.0413 58.1589 89.1641 59.0654C94.2824 59.8288 99.7362 59.8288 104.854 59.0654C111.025 58.1589 115.234 56.1558 119.73 54.0566C123.318 52.3868 127.002 50.6215 131.737 49.4287ZM145.705 23.7598C158.764 23.7598 165.318 26.9564 171.68 30.0576C177.515 32.9202 183.065 35.5918 194.354 35.5918C194.369 35.5918 194.385 35.5926 194.401 35.5928V43.0332C194.385 43.0334 194.369 43.0352 194.354 43.0352L194.306 43.083C181.295 43.083 174.693 39.8863 168.331 36.7852C162.495 33.9225 156.946 31.25 145.657 31.25C134.368 31.25 128.819 33.9702 122.983 36.7852C118.631 38.9321 114.086 41.1264 107.342 42.2715C105.333 42.6055 103.371 41.2693 103.036 39.2178C102.702 37.214 104.041 35.2578 106.098 34.9238C111.79 33.9696 115.665 32.0615 119.73 30.0576C126.093 26.9564 132.646 23.7598 145.705 23.7598ZM48.457 23.8076C61.5159 23.8076 68.0696 27.0043 74.3838 30.1055C78.5931 32.157 82.6117 34.1132 88.6387 35.0674C90.6953 35.4016 92.0819 37.3098 91.7471 39.3135C91.4122 41.365 89.5471 42.7489 87.4902 42.415C80.3152 41.3177 75.6272 39.0275 71.1309 36.7852C65.295 33.9225 59.746 31.25 48.457 31.25C37.168 31.25 31.6191 33.9702 25.7832 36.7852C19.4446 39.8749 12.9159 43.0577 0 43.0811V35.5928C0.174974 35.5949 0.347185 35.6082 0.515625 35.6338C11.3319 35.5226 16.7698 32.861 22.4824 30.1055C28.8445 27.0043 35.3981 23.8076 48.457 23.8076ZM145.753 0C158.812 0 165.366 3.19663 171.728 6.29785C177.563 9.16046 183.113 11.832 194.401 11.832V19.2744H194.306C181.295 19.2744 174.693 16.0778 168.331 12.9766C162.495 10.1139 156.946 7.44238 145.657 7.44238C134.368 7.4424 128.819 10.1616 122.983 12.9766C116.621 16.0778 110.068 19.2744 97.0566 19.2744C84.0459 19.2743 77.445 16.0777 71.083 12.9766C65.2472 10.1139 59.6981 7.4424 48.4092 7.44238C37.1203 7.44238 31.5711 10.1617 25.7354 12.9766C19.4046 16.0626 12.8842 19.2413 0 19.2725V11.8301C11.1605 11.7995 16.6797 9.09682 22.4824 6.29785C28.8445 3.19663 35.3981 0 48.457 0C61.5158 2.96764e-05 68.0696 3.19665 74.4316 6.29785C80.2672 9.16038 85.8161 11.832 97.1045 11.832C108.393 11.832 113.943 9.11273 119.778 6.29785C126.14 3.19664 132.694 1.75074e-05 145.753 0Z" fill="#FB9100"/>
</svg>
